<svg xmlns="http://www.w3.org/2000/svg" xmlns:xlink="http://www.w3.org/1999/xlink" width="400" height="400"><g><title>background</title><rect id="canvas_background" width="402" height="402" x="-1" y="-1" fill="#091f2f"/><g id="canvasGrid" width="100%" height="100%" x="0" y="0" display="none"><rect width="100%" height="100%" x="0" y="0" fill="url(#gridpattern)" stroke-width="0"/></g></g><g><title>Layer 1</title><g id="svg_178" stroke="null"><g id="svg_59" stroke="null" transform="matrix(2.1789559466030592,0,0,2.1789559466030592,-2339.025313085922,-1562.6350536130478)"><g id="svg_116" stroke="null"><defs fill="#0C1F2E" stroke="#288be4" transform="translate(22.946807861328125,0) translate(0,22.946788787841797) translate(0,-22.946762084960938) translate(-22.94673728942871,0) translate(22.946807861328125,0) translate(0,22.946788787841797) translate(0,-22.946762084960938) translate(-64.25093841552734,0) translate(0,1.243476390838623) translate(96.34132385253906,0) translate(-101.15997314453125,0) translate(-1.8357415199279785,8.719772338867188) translate(-0.45893537998199463,-11.473384857177734) translate(-28.95466423034668,-46.53428268432617) translate(1098.2708740234375,0) translate(0,787.4299926757812)"><path id="svg_113" fill="#0C1F2E" stroke="#288be4" d="m-225.1,-268.6l-1.5,0l0,1.5l0,35l0,1.5l1.5,0l139,0l1.5,0l0,-1.5l0,-23l0,-0.6l-0.4,-0.4l-11.4,-12l-0.4,-0.5l-0.6,0l-127.7,0zm0,3l127.6,0l-1.1,-0.5l11.4,12l-0.4,-1l0,23l1.5,-1.5l-139,0l1.5,1.5l0,-35l-1.5,1.5zm-21.5,-23l182,0l0,78l-182,0l0,-78z"/></defs><clipPath id="svg_108" fill="#0C1F2E" stroke="#288be4" transform="translate(22.946807861328125,0) translate(0,22.946788787841797) translate(0,-22.946762084960938) translate(-22.94673728942871,0) translate(22.946807861328125,0) translate(0,22.946788787841797) translate(0,-22.946762084960938) translate(-64.25093841552734,0) translate(0,1.243476390838623) translate(96.34132385253906,0) translate(-101.15997314453125,0) translate(-1.8357415199279785,8.719772338867188) translate(-0.45893537998199463,-11.473384857177734) translate(-28.95466423034668,-46.53428268432617) translate(1098.2708740234375,0) translate(0,787.4299926757812)"><use id="svg_117" x="997.493" y="744.434" fill="#0C1F2E" stroke="#288be4" xlink:href="#svg_113"/></clipPath><g id="svg_118" stroke="null" clip-path="url(#svg_108)"><defs fill="#0C1F2E" stroke="#288be4" transform="translate(22.946807861328125,0) translate(0,22.946788787841797) translate(0,-22.946762084960938) translate(-22.94673728942871,0) translate(22.946807861328125,0) translate(0,22.946788787841797) translate(0,-22.946762084960938) translate(-64.25093841552734,0) translate(0,1.243476390838623) translate(96.34132385253906,0) translate(-101.15997314453125,0) translate(-1.8357415199279785,8.719772338867188) translate(-0.45893537998199463,-11.473384857177734) translate(-28.95466423034668,-46.53428268432617) translate(1098.2708740234375,0) translate(0,787.4299926757812)"><polygon id="svg_112" fill="#0C1F2E" stroke="#288be4" points="-225.1 -267.1 -97.5 -267.1 -86.1 -255.1 -86.1 -232.1 -225.1 -232.1"/></defs><clipPath id="svg_109" fill="#0C1F2E" stroke="#288be4" transform="translate(22.946807861328125,0) translate(0,22.946788787841797) translate(0,-22.946762084960938) translate(-22.94673728942871,0) translate(22.946807861328125,0) translate(0,22.946788787841797) translate(0,-22.946762084960938) translate(-64.25093841552734,0) translate(0,1.243476390838623) translate(96.34132385253906,0) translate(-101.15997314453125,0) translate(-1.8357415199279785,8.719772338867188) translate(-0.45893537998199463,-11.473384857177734) translate(-28.95466423034668,-46.53428268432617) translate(1098.2708740234375,0) translate(0,787.4299926757812)"><use id="svg_119" x="997.493" y="744.434" fill="#0C1F2E" stroke="#288be4" xlink:href="#svg_112"/></clipPath><g id="svg_120" stroke="null" clip-path="url(#svg_109)"><defs fill="#0C1F2E" stroke="#288be4" transform="translate(22.946807861328125,0) translate(0,22.946788787841797) translate(0,-22.946762084960938) translate(-22.94673728942871,0) translate(22.946807861328125,0) translate(0,22.946788787841797) translate(0,-22.946762084960938) translate(-64.25093841552734,0) translate(0,1.243476390838623) translate(96.34132385253906,0) translate(-101.15997314453125,0) translate(-1.8357415199279785,8.719772338867188) translate(-0.45893537998199463,-11.473384857177734) translate(-28.95466423034668,-46.53428268432617) translate(1098.2708740234375,0) translate(0,787.4299926757812)"><rect id="svg_111" width="1121" height="1030" x="-597.1" y="-802.1" fill="#0C1F2E" stroke="#288be4"/></defs><clipPath id="svg_110" fill="#0C1F2E" stroke="#288be4" transform="translate(22.946807861328125,0) translate(0,22.946788787841797) translate(0,-22.946762084960938) translate(-22.94673728942871,0) translate(22.946807861328125,0) translate(0,22.946788787841797) translate(0,-22.946762084960938) translate(-64.25093841552734,0) translate(0,1.243476390838623) translate(96.34132385253906,0) translate(-101.15997314453125,0) translate(-1.8357415199279785,8.719772338867188) translate(-0.45893537998199463,-11.473384857177734) translate(-28.95466423034668,-46.53428268432617) translate(1098.2708740234375,0) translate(0,787.4299926757812)"><use id="svg_121" fill="#0C1F2E" stroke="#288be4" xlink:href="#svg_111"/></clipPath></g></g></g><g id="svg_122" stroke="null"><defs fill="#0C1F2E" stroke="#288be4" transform="translate(22.946807861328125,0) translate(0,22.946788787841797) translate(0,-22.946762084960938) translate(-22.94673728942871,0) translate(22.946807861328125,0) translate(0,22.946788787841797) translate(0,-22.946762084960938) translate(-64.25093841552734,0) translate(0,1.243476390838623) translate(96.34132385253906,0) translate(-101.15997314453125,0) translate(-1.8357415199279785,8.719772338867188) translate(-0.45893537998199463,-11.473384857177734) translate(-28.95466423034668,-46.53428268432617) translate(1098.2708740234375,0) translate(0,787.4299926757812)"><polygon id="svg_107" fill="#0C1F2E" stroke="#288be4" points="-225.1 -267.1 -97.5 -267.1 -86.1 -255.1 -86.1 -232.1 -225.1 -232.1"/></defs><clipPath id="svg_104" fill="#0C1F2E" stroke="#288be4" transform="translate(22.946807861328125,0) translate(0,22.946788787841797) translate(0,-22.946762084960938) translate(-22.94673728942871,0) translate(22.946807861328125,0) translate(0,22.946788787841797) translate(0,-22.946762084960938) translate(-64.25093841552734,0) translate(0,1.243476390838623) translate(96.34132385253906,0) translate(-101.15997314453125,0) translate(-1.8357415199279785,8.719772338867188) translate(-0.45893537998199463,-11.473384857177734) translate(-28.95466423034668,-46.53428268432617) translate(1098.2708740234375,0) translate(0,787.4299926757812)"><use id="svg_123" x="997.493" y="744.434" fill="#0C1F2E" stroke="#288be4" xlink:href="#svg_107"/></clipPath><g id="svg_124" stroke="null" clip-path="url(#svg_104)"><defs fill="#0C1F2E" stroke="#288be4" transform="translate(22.946807861328125,0) translate(0,22.946788787841797) translate(0,-22.946762084960938) translate(-22.94673728942871,0) translate(22.946807861328125,0) translate(0,22.946788787841797) translate(0,-22.946762084960938) translate(-64.25093841552734,0) translate(0,1.243476390838623) translate(96.34132385253906,0) translate(-101.15997314453125,0) translate(-1.8357415199279785,8.719772338867188) translate(-0.45893537998199463,-11.473384857177734) translate(-28.95466423034668,-46.53428268432617) translate(1098.2708740234375,0) translate(0,787.4299926757812)"><rect id="svg_106" width="1121" height="1030" x="-597.1" y="-802.1" fill="#0C1F2E" stroke="#288be4"/></defs><clipPath id="svg_105" fill="#0C1F2E" stroke="#288be4" transform="translate(22.946807861328125,0) translate(0,22.946788787841797) translate(0,-22.946762084960938) translate(-22.94673728942871,0) translate(22.946807861328125,0) translate(0,22.946788787841797) translate(0,-22.946762084960938) translate(-64.25093841552734,0) translate(0,1.243476390838623) translate(96.34132385253906,0) translate(-101.15997314453125,0) translate(-1.8357415199279785,8.719772338867188) translate(-0.45893537998199463,-11.473384857177734) translate(-28.95466423034668,-46.53428268432617) translate(1098.2708740234375,0) translate(0,787.4299926757812)"><use id="svg_125" fill="#0C1F2E" stroke="#288be4" xlink:href="#svg_106"/></clipPath></g></g><g id="svg_126" stroke="null"><defs fill="#0C1F2E" stroke="#288be4" transform="translate(22.946807861328125,0) translate(0,22.946788787841797) translate(0,-22.946762084960938) translate(-22.94673728942871,0) translate(22.946807861328125,0) translate(0,22.946788787841797) translate(0,-22.946762084960938) translate(-64.25093841552734,0) translate(0,1.243476390838623) translate(96.34132385253906,0) translate(-101.15997314453125,0) translate(-1.8357415199279785,8.719772338867188) translate(-0.45893537998199463,-11.473384857177734) translate(-28.95466423034668,-46.53428268432617) translate(1098.2708740234375,0) translate(0,787.4299926757812)"><path id="svg_103" fill="#0C1F2E" stroke="#288be4" d="m-192.1,-217.2c-8,0 -14.5,-6.5 -14.5,-14.5c0,-8 6.5,-14.5 14.5,-14.5s14.5,6.5 14.5,14.5c0,8 -6.5,14.5 -14.5,14.5zm0,3c9.7,0 17.5,-7.8 17.5,-17.5c0,-9.7 -7.8,-17.5 -17.5,-17.5s-17.5,7.8 -17.5,17.5c0,9.7 7.9,17.5 17.5,17.5zm-37.5,-55l75,0l0,75l-75,0l0,-75z"/></defs><clipPath id="svg_98" fill="#0C1F2E" stroke="#288be4" transform="translate(22.946807861328125,0) translate(0,22.946788787841797) translate(0,-22.946762084960938) translate(-22.94673728942871,0) translate(22.946807861328125,0) translate(0,22.946788787841797) translate(0,-22.946762084960938) translate(-64.25093841552734,0) translate(0,1.243476390838623) translate(96.34132385253906,0) translate(-101.15997314453125,0) translate(-1.8357415199279785,8.719772338867188) translate(-0.45893537998199463,-11.473384857177734) translate(-28.95466423034668,-46.53428268432617) translate(1098.2708740234375,0) translate(0,787.4299926757812)"><use id="svg_127" x="997.493" y="744.434" fill="#0C1F2E" stroke="#288be4" xlink:href="#svg_103"/></clipPath><g id="svg_128" stroke="null" clip-path="url(#svg_98)"><defs fill="#0C1F2E" stroke="#288be4" transform="translate(22.946807861328125,0) translate(0,22.946788787841797) translate(0,-22.946762084960938) translate(-22.94673728942871,0) translate(22.946807861328125,0) translate(0,22.946788787841797) translate(0,-22.946762084960938) translate(-64.25093841552734,0) translate(0,1.243476390838623) translate(96.34132385253906,0) translate(-101.15997314453125,0) translate(-1.8357415199279785,8.719772338867188) translate(-0.45893537998199463,-11.473384857177734) translate(-28.95466423034668,-46.53428268432617) translate(1098.2708740234375,0) translate(0,787.4299926757812)"><circle id="svg_102" cx="-192.1" cy="-231.7" r="16" fill="#0C1F2E" stroke="#288be4"/></defs><clipPath id="svg_99" fill="#0C1F2E" stroke="#288be4" transform="translate(22.946807861328125,0) translate(0,22.946788787841797) translate(0,-22.946762084960938) translate(-22.94673728942871,0) translate(22.946807861328125,0) translate(0,22.946788787841797) translate(0,-22.946762084960938) translate(-64.25093841552734,0) translate(0,1.243476390838623) translate(96.34132385253906,0) translate(-101.15997314453125,0) translate(-1.8357415199279785,8.719772338867188) translate(-0.45893537998199463,-11.473384857177734) translate(-28.95466423034668,-46.53428268432617) translate(1098.2708740234375,0) translate(0,787.4299926757812)"><use id="svg_129" x="997.493" y="744.434" fill="#0C1F2E" stroke="#288be4" xlink:href="#svg_102"/></clipPath><g id="svg_130" stroke="null" clip-path="url(#svg_99)"><defs fill="#0C1F2E" stroke="#288be4" transform="translate(22.946807861328125,0) translate(0,22.946788787841797) translate(0,-22.946762084960938) translate(-22.94673728942871,0) translate(22.946807861328125,0) translate(0,22.946788787841797) translate(0,-22.946762084960938) translate(-64.25093841552734,0) translate(0,1.243476390838623) translate(96.34132385253906,0) translate(-101.15997314453125,0) translate(-1.8357415199279785,8.719772338867188) translate(-0.45893537998199463,-11.473384857177734) translate(-28.95466423034668,-46.53428268432617) translate(1098.2708740234375,0) translate(0,787.4299926757812)"><rect id="svg_101" width="1121" height="1030" x="-597.1" y="-802.1" fill="#0C1F2E" stroke="#288be4"/></defs><clipPath id="svg_100" fill="#0C1F2E" stroke="#288be4" transform="translate(22.946807861328125,0) translate(0,22.946788787841797) translate(0,-22.946762084960938) translate(-22.94673728942871,0) translate(22.946807861328125,0) translate(0,22.946788787841797) translate(0,-22.946762084960938) translate(-64.25093841552734,0) translate(0,1.243476390838623) translate(96.34132385253906,0) translate(-101.15997314453125,0) translate(-1.8357415199279785,8.719772338867188) translate(-0.45893537998199463,-11.473384857177734) translate(-28.95466423034668,-46.53428268432617) translate(1098.2708740234375,0) translate(0,787.4299926757812)"><use id="svg_131" fill="#0C1F2E" stroke="#288be4" xlink:href="#svg_101"/></clipPath></g></g></g><g id="svg_132" stroke="null"><defs fill="#0C1F2E" stroke="#288be4" transform="translate(22.946807861328125,0) translate(0,22.946788787841797) translate(0,-22.946762084960938) translate(-22.94673728942871,0) translate(22.946807861328125,0) translate(0,22.946788787841797) translate(0,-22.946762084960938) translate(-64.25093841552734,0) translate(0,1.243476390838623) translate(96.34132385253906,0) translate(-101.15997314453125,0) translate(-1.8357415199279785,8.719772338867188) translate(-0.45893537998199463,-11.473384857177734) translate(-28.95466423034668,-46.53428268432617) translate(1098.2708740234375,0) translate(0,787.4299926757812)"><circle id="svg_97" cx="-192.1" cy="-231.7" r="16" fill="#0C1F2E" stroke="#288be4"/></defs><clipPath id="svg_94" fill="#0C1F2E" stroke="#288be4" transform="translate(22.946807861328125,0) translate(0,22.946788787841797) translate(0,-22.946762084960938) translate(-22.94673728942871,0) translate(22.946807861328125,0) translate(0,22.946788787841797) translate(0,-22.946762084960938) translate(-64.25093841552734,0) translate(0,1.243476390838623) translate(96.34132385253906,0) translate(-101.15997314453125,0) translate(-1.8357415199279785,8.719772338867188) translate(-0.45893537998199463,-11.473384857177734) translate(-28.95466423034668,-46.53428268432617) translate(1098.2708740234375,0) translate(0,787.4299926757812)"><use id="svg_133" x="997.493" y="744.434" fill="#0C1F2E" stroke="#288be4" xlink:href="#svg_97"/></clipPath><g id="svg_134" stroke="null" clip-path="url(#svg_94)"><defs fill="#0C1F2E" stroke="#288be4" transform="translate(22.946807861328125,0) translate(0,22.946788787841797) translate(0,-22.946762084960938) translate(-22.94673728942871,0) translate(22.946807861328125,0) translate(0,22.946788787841797) translate(0,-22.946762084960938) translate(-64.25093841552734,0) translate(0,1.243476390838623) translate(96.34132385253906,0) translate(-101.15997314453125,0) translate(-1.8357415199279785,8.719772338867188) translate(-0.45893537998199463,-11.473384857177734) translate(-28.95466423034668,-46.53428268432617) translate(1098.2708740234375,0) translate(0,787.4299926757812)"><rect id="svg_96" width="1121" height="1030" x="-597.1" y="-802.1" fill="#0C1F2E" stroke="#288be4"/></defs><clipPath id="svg_95" fill="#0C1F2E" stroke="#288be4" transform="translate(22.946807861328125,0) translate(0,22.946788787841797) translate(0,-22.946762084960938) translate(-22.94673728942871,0) translate(22.946807861328125,0) translate(0,22.946788787841797) translate(0,-22.946762084960938) translate(-64.25093841552734,0) translate(0,1.243476390838623) translate(96.34132385253906,0) translate(-101.15997314453125,0) translate(-1.8357415199279785,8.719772338867188) translate(-0.45893537998199463,-11.473384857177734) translate(-28.95466423034668,-46.53428268432617) translate(1098.2708740234375,0) translate(0,787.4299926757812)"><use id="svg_135" fill="#0C1F2E" stroke="#288be4" xlink:href="#svg_96"/></clipPath></g></g><g id="svg_136" stroke="null"><defs fill="#0C1F2E" stroke="#288be4" transform="translate(22.946807861328125,0) translate(0,22.946788787841797) translate(0,-22.946762084960938) translate(-22.94673728942871,0) translate(22.946807861328125,0) translate(0,22.946788787841797) translate(0,-22.946762084960938) translate(-64.25093841552734,0) translate(0,1.243476390838623) translate(96.34132385253906,0) translate(-101.15997314453125,0) translate(-1.8357415199279785,8.719772338867188) translate(-0.45893537998199463,-11.473384857177734) translate(-28.95466423034668,-46.53428268432617) translate(1098.2708740234375,0) translate(0,787.4299926757812)"><path id="svg_93" fill="#0C1F2E" stroke="#288be4" d="m-192.1,-224.2c-4.1,0 -7.5,-3.4 -7.5,-7.5c0,-4.1 3.4,-7.5 7.5,-7.5s7.5,3.4 7.5,7.5c0,4.2 -3.3,7.5 -7.5,7.5zm0,3c5.8,0 10.5,-4.7 10.5,-10.5c0,-5.8 -4.7,-10.5 -10.5,-10.5s-10.5,4.7 -10.5,10.5c0,5.8 4.7,10.5 10.5,10.5zm-30.5,-41l61,0l0,61l-61,0l0,-61z"/></defs><clipPath id="svg_88" fill="#0C1F2E" stroke="#288be4" transform="translate(22.946807861328125,0) translate(0,22.946788787841797) translate(0,-22.946762084960938) translate(-22.94673728942871,0) translate(22.946807861328125,0) translate(0,22.946788787841797) translate(0,-22.946762084960938) translate(-64.25093841552734,0) translate(0,1.243476390838623) translate(96.34132385253906,0) translate(-101.15997314453125,0) translate(-1.8357415199279785,8.719772338867188) translate(-0.45893537998199463,-11.473384857177734) translate(-28.95466423034668,-46.53428268432617) translate(1098.2708740234375,0) translate(0,787.4299926757812)"><use id="svg_137" x="997.493" y="744.434" fill="#0C1F2E" stroke="#288be4" xlink:href="#svg_93"/></clipPath><g id="svg_138" stroke="null" clip-path="url(#svg_88)"><defs fill="#0C1F2E" stroke="#288be4" transform="translate(22.946807861328125,0) translate(0,22.946788787841797) translate(0,-22.946762084960938) translate(-22.94673728942871,0) translate(22.946807861328125,0) translate(0,22.946788787841797) translate(0,-22.946762084960938) translate(-64.25093841552734,0) translate(0,1.243476390838623) translate(96.34132385253906,0) translate(-101.15997314453125,0) translate(-1.8357415199279785,8.719772338867188) translate(-0.45893537998199463,-11.473384857177734) translate(-28.95466423034668,-46.53428268432617) translate(1098.2708740234375,0) translate(0,787.4299926757812)"><circle id="svg_92" cx="-192.1" cy="-231.7" r="9" fill="#0C1F2E" stroke="#288be4"/></defs><clipPath id="svg_89" fill="#0C1F2E" stroke="#288be4" transform="translate(22.946807861328125,0) translate(0,22.946788787841797) translate(0,-22.946762084960938) translate(-22.94673728942871,0) translate(22.946807861328125,0) translate(0,22.946788787841797) translate(0,-22.946762084960938) translate(-64.25093841552734,0) translate(0,1.243476390838623) translate(96.34132385253906,0) translate(-101.15997314453125,0) translate(-1.8357415199279785,8.719772338867188) translate(-0.45893537998199463,-11.473384857177734) translate(-28.95466423034668,-46.53428268432617) translate(1098.2708740234375,0) translate(0,787.4299926757812)"><use id="svg_139" x="997.493" y="744.434" fill="#0C1F2E" stroke="#288be4" xlink:href="#svg_92"/></clipPath><g id="svg_140" stroke="null" clip-path="url(#svg_89)"><defs fill="#0C1F2E" stroke="#288be4" transform="translate(22.946807861328125,0) translate(0,22.946788787841797) translate(0,-22.946762084960938) translate(-22.94673728942871,0) translate(22.946807861328125,0) translate(0,22.946788787841797) translate(0,-22.946762084960938) translate(-64.25093841552734,0) translate(0,1.243476390838623) translate(96.34132385253906,0) translate(-101.15997314453125,0) translate(-1.8357415199279785,8.719772338867188) translate(-0.45893537998199463,-11.473384857177734) translate(-28.95466423034668,-46.53428268432617) translate(1098.2708740234375,0) translate(0,787.4299926757812)"><rect id="svg_91" width="1121" height="1030" x="-597.1" y="-802.1" fill="#0C1F2E" stroke="#288be4"/></defs><clipPath id="svg_90" fill="#0C1F2E" stroke="#288be4" transform="translate(22.946807861328125,0) translate(0,22.946788787841797) translate(0,-22.946762084960938) translate(-22.94673728942871,0) translate(22.946807861328125,0) translate(0,22.946788787841797) translate(0,-22.946762084960938) translate(-64.25093841552734,0) translate(0,1.243476390838623) translate(96.34132385253906,0) translate(-101.15997314453125,0) translate(-1.8357415199279785,8.719772338867188) translate(-0.45893537998199463,-11.473384857177734) translate(-28.95466423034668,-46.53428268432617) translate(1098.2708740234375,0) translate(0,787.4299926757812)"><use id="svg_141" fill="#0C1F2E" stroke="#288be4" xlink:href="#svg_91"/></clipPath></g></g></g><g id="svg_142" stroke="null"><defs fill="#0C1F2E" stroke="#288be4" transform="translate(22.946807861328125,0) translate(0,22.946788787841797) translate(0,-22.946762084960938) translate(-22.94673728942871,0) translate(22.946807861328125,0) translate(0,22.946788787841797) translate(0,-22.946762084960938) translate(-64.25093841552734,0) translate(0,1.243476390838623) translate(96.34132385253906,0) translate(-101.15997314453125,0) translate(-1.8357415199279785,8.719772338867188) translate(-0.45893537998199463,-11.473384857177734) translate(-28.95466423034668,-46.53428268432617) translate(1098.2708740234375,0) translate(0,787.4299926757812)"><circle id="svg_87" cx="-192.1" cy="-231.7" r="9" fill="#0C1F2E" stroke="#288be4"/></defs><clipPath id="svg_84" fill="#0C1F2E" stroke="#288be4" transform="translate(22.946807861328125,0) translate(0,22.946788787841797) translate(0,-22.946762084960938) translate(-22.94673728942871,0) translate(22.946807861328125,0) translate(0,22.946788787841797) translate(0,-22.946762084960938) translate(-64.25093841552734,0) translate(0,1.243476390838623) translate(96.34132385253906,0) translate(-101.15997314453125,0) translate(-1.8357415199279785,8.719772338867188) translate(-0.45893537998199463,-11.473384857177734) translate(-28.95466423034668,-46.53428268432617) translate(1098.2708740234375,0) translate(0,787.4299926757812)"><use id="svg_143" x="997.493" y="744.434" fill="#0C1F2E" stroke="#288be4" xlink:href="#svg_87"/></clipPath><g id="svg_144" stroke="null" clip-path="url(#svg_84)"><defs fill="#0C1F2E" stroke="#288be4" transform="translate(22.946807861328125,0) translate(0,22.946788787841797) translate(0,-22.946762084960938) translate(-22.94673728942871,0) translate(22.946807861328125,0) translate(0,22.946788787841797) translate(0,-22.946762084960938) translate(-64.25093841552734,0) translate(0,1.243476390838623) translate(96.34132385253906,0) translate(-101.15997314453125,0) translate(-1.8357415199279785,8.719772338867188) translate(-0.45893537998199463,-11.473384857177734) translate(-28.95466423034668,-46.53428268432617) translate(1098.2708740234375,0) translate(0,787.4299926757812)"><rect id="svg_86" width="1121" height="1030" x="-597.1" y="-802.1" fill="#0C1F2E" stroke="#288be4"/></defs><clipPath id="svg_85" fill="#0C1F2E" stroke="#288be4" transform="translate(22.946807861328125,0) translate(0,22.946788787841797) translate(0,-22.946762084960938) translate(-22.94673728942871,0) translate(22.946807861328125,0) translate(0,22.946788787841797) translate(0,-22.946762084960938) translate(-64.25093841552734,0) translate(0,1.243476390838623) translate(96.34132385253906,0) translate(-101.15997314453125,0) translate(-1.8357415199279785,8.719772338867188) translate(-0.45893537998199463,-11.473384857177734) translate(-28.95466423034668,-46.53428268432617) translate(1098.2708740234375,0) translate(0,787.4299926757812)"><use id="svg_145" fill="#0C1F2E" stroke="#288be4" xlink:href="#svg_86"/></clipPath></g></g><g id="svg_146" stroke="null"><defs fill="#0C1F2E" stroke="#288be4" transform="translate(22.946807861328125,0) translate(0,22.946788787841797) translate(0,-22.946762084960938) translate(-22.94673728942871,0) translate(22.946807861328125,0) translate(0,22.946788787841797) translate(0,-22.946762084960938) translate(-64.25093841552734,0) translate(0,1.243476390838623) translate(96.34132385253906,0) translate(-101.15997314453125,0) translate(-1.8357415199279785,8.719772338867188) translate(-0.45893537998199463,-11.473384857177734) translate(-28.95466423034668,-46.53428268432617) translate(1098.2708740234375,0) translate(0,787.4299926757812)"><path id="svg_83" fill="#0C1F2E" stroke="#288be4" d="m-125.8,-217.2c-8,0 -14.5,-6.5 -14.5,-14.5c0,-8 6.5,-14.5 14.5,-14.5c8,0 14.5,6.5 14.5,14.5c0,8 -6.5,14.5 -14.5,14.5zm0,3c9.7,0 17.5,-7.8 17.5,-17.5c0,-9.7 -7.8,-17.5 -17.5,-17.5s-17.5,7.8 -17.5,17.5c0,9.7 7.8,17.5 17.5,17.5zm-37.5,-55l75,0l0,75l-75,0l0,-75z"/></defs><clipPath id="svg_78" fill="#0C1F2E" stroke="#288be4" transform="translate(22.946807861328125,0) translate(0,22.946788787841797) translate(0,-22.946762084960938) translate(-22.94673728942871,0) translate(22.946807861328125,0) translate(0,22.946788787841797) translate(0,-22.946762084960938) translate(-64.25093841552734,0) translate(0,1.243476390838623) translate(96.34132385253906,0) translate(-101.15997314453125,0) translate(-1.8357415199279785,8.719772338867188) translate(-0.45893537998199463,-11.473384857177734) translate(-28.95466423034668,-46.53428268432617) translate(1098.2708740234375,0) translate(0,787.4299926757812)"><use id="svg_147" x="997.493" y="744.434" fill="#0C1F2E" stroke="#288be4" xlink:href="#svg_83"/></clipPath><g id="svg_148" stroke="null" clip-path="url(#svg_78)"><defs fill="#0C1F2E" stroke="#288be4" transform="translate(22.946807861328125,0) translate(0,22.946788787841797) translate(0,-22.946762084960938) translate(-22.94673728942871,0) translate(22.946807861328125,0) translate(0,22.946788787841797) translate(0,-22.946762084960938) translate(-64.25093841552734,0) translate(0,1.243476390838623) translate(96.34132385253906,0) translate(-101.15997314453125,0) translate(-1.8357415199279785,8.719772338867188) translate(-0.45893537998199463,-11.473384857177734) translate(-28.95466423034668,-46.53428268432617) translate(1098.2708740234375,0) translate(0,787.4299926757812)"><circle id="svg_82" cx="-125.8" cy="-231.7" r="16" fill="#0C1F2E" stroke="#288be4"/></defs><clipPath id="svg_79" fill="#0C1F2E" stroke="#288be4" transform="translate(22.946807861328125,0) translate(0,22.946788787841797) translate(0,-22.946762084960938) translate(-22.94673728942871,0) translate(22.946807861328125,0) translate(0,22.946788787841797) translate(0,-22.946762084960938) translate(-64.25093841552734,0) translate(0,1.243476390838623) translate(96.34132385253906,0) translate(-101.15997314453125,0) translate(-1.8357415199279785,8.719772338867188) translate(-0.45893537998199463,-11.473384857177734) translate(-28.95466423034668,-46.53428268432617) translate(1098.2708740234375,0) translate(0,787.4299926757812)"><use id="svg_149" x="997.493" y="744.434" fill="#0C1F2E" stroke="#288be4" xlink:href="#svg_82"/></clipPath><g id="svg_150" stroke="null" clip-path="url(#svg_79)"><defs fill="#0C1F2E" stroke="#288be4" transform="translate(22.946807861328125,0) translate(0,22.946788787841797) translate(0,-22.946762084960938) translate(-22.94673728942871,0) translate(22.946807861328125,0) translate(0,22.946788787841797) translate(0,-22.946762084960938) translate(-64.25093841552734,0) translate(0,1.243476390838623) translate(96.34132385253906,0) translate(-101.15997314453125,0) translate(-1.8357415199279785,8.719772338867188) translate(-0.45893537998199463,-11.473384857177734) translate(-28.95466423034668,-46.53428268432617) translate(1098.2708740234375,0) translate(0,787.4299926757812)"><rect id="svg_81" width="1121" height="1030" x="-597.1" y="-802.1" fill="#0C1F2E" stroke="#288be4"/></defs><clipPath id="svg_80" fill="#0C1F2E" stroke="#288be4" transform="translate(22.946807861328125,0) translate(0,22.946788787841797) translate(0,-22.946762084960938) translate(-22.94673728942871,0) translate(22.946807861328125,0) translate(0,22.946788787841797) translate(0,-22.946762084960938) translate(-64.25093841552734,0) translate(0,1.243476390838623) translate(96.34132385253906,0) translate(-101.15997314453125,0) translate(-1.8357415199279785,8.719772338867188) translate(-0.45893537998199463,-11.473384857177734) translate(-28.95466423034668,-46.53428268432617) translate(1098.2708740234375,0) translate(0,787.4299926757812)"><use id="svg_151" fill="#0C1F2E" stroke="#288be4" xlink:href="#svg_81"/></clipPath></g></g></g><g id="svg_152" stroke="null"><defs fill="#0C1F2E" stroke="#288be4" transform="translate(22.946807861328125,0) translate(0,22.946788787841797) translate(0,-22.946762084960938) translate(-22.94673728942871,0) translate(22.946807861328125,0) translate(0,22.946788787841797) translate(0,-22.946762084960938) translate(-64.25093841552734,0) translate(0,1.243476390838623) translate(96.34132385253906,0) translate(-101.15997314453125,0) translate(-1.8357415199279785,8.719772338867188) translate(-0.45893537998199463,-11.473384857177734) translate(-28.95466423034668,-46.53428268432617) translate(1098.2708740234375,0) translate(0,787.4299926757812)"><circle id="svg_77" cx="-125.8" cy="-231.7" r="16" fill="#0C1F2E" stroke="#288be4"/></defs><clipPath id="svg_74" fill="#0C1F2E" stroke="#288be4" transform="translate(22.946807861328125,0) translate(0,22.946788787841797) translate(0,-22.946762084960938) translate(-22.94673728942871,0) translate(22.946807861328125,0) translate(0,22.946788787841797) translate(0,-22.946762084960938) translate(-64.25093841552734,0) translate(0,1.243476390838623) translate(96.34132385253906,0) translate(-101.15997314453125,0) translate(-1.8357415199279785,8.719772338867188) translate(-0.45893537998199463,-11.473384857177734) translate(-28.95466423034668,-46.53428268432617) translate(1098.2708740234375,0) translate(0,787.4299926757812)"><use id="svg_153" x="997.493" y="744.434" fill="#0C1F2E" stroke="#288be4" xlink:href="#svg_77"/></clipPath><g id="svg_154" stroke="null" clip-path="url(#svg_74)"><defs fill="#0C1F2E" stroke="#288be4" transform="translate(22.946807861328125,0) translate(0,22.946788787841797) translate(0,-22.946762084960938) translate(-22.94673728942871,0) translate(22.946807861328125,0) translate(0,22.946788787841797) translate(0,-22.946762084960938) translate(-64.25093841552734,0) translate(0,1.243476390838623) translate(96.34132385253906,0) translate(-101.15997314453125,0) translate(-1.8357415199279785,8.719772338867188) translate(-0.45893537998199463,-11.473384857177734) translate(-28.95466423034668,-46.53428268432617) translate(1098.2708740234375,0) translate(0,787.4299926757812)"><rect id="svg_76" width="1121" height="1030" x="-597.1" y="-802.1" fill="#0C1F2E" stroke="#288be4"/></defs><clipPath id="svg_75" fill="#0C1F2E" stroke="#288be4" transform="translate(22.946807861328125,0) translate(0,22.946788787841797) translate(0,-22.946762084960938) translate(-22.94673728942871,0) translate(22.946807861328125,0) translate(0,22.946788787841797) translate(0,-22.946762084960938) translate(-64.25093841552734,0) translate(0,1.243476390838623) translate(96.34132385253906,0) translate(-101.15997314453125,0) translate(-1.8357415199279785,8.719772338867188) translate(-0.45893537998199463,-11.473384857177734) translate(-28.95466423034668,-46.53428268432617) translate(1098.2708740234375,0) translate(0,787.4299926757812)"><use id="svg_155" fill="#0C1F2E" stroke="#288be4" xlink:href="#svg_76"/></clipPath></g></g><g id="svg_156" stroke="null"><defs fill="#0C1F2E" stroke="#288be4" transform="translate(22.946807861328125,0) translate(0,22.946788787841797) translate(0,-22.946762084960938) translate(-22.94673728942871,0) translate(22.946807861328125,0) translate(0,22.946788787841797) translate(0,-22.946762084960938) translate(-64.25093841552734,0) translate(0,1.243476390838623) translate(96.34132385253906,0) translate(-101.15997314453125,0) translate(-1.8357415199279785,8.719772338867188) translate(-0.45893537998199463,-11.473384857177734) translate(-28.95466423034668,-46.53428268432617) translate(1098.2708740234375,0) translate(0,787.4299926757812)"><path id="svg_73" fill="#0C1F2E" stroke="#288be4" d="m-125.6,-272l-7.7,-15.6l-27.2,0l0,15.6l34.9,0zm-75.2,0l7.4,-15.6l27.2,0l0,15.6l-34.6,0zm-10.3,5.3l14.1,-26.9l66.8,0l15.3,27.9l-96.2,-1z"/></defs><clipPath id="svg_70" fill="#0C1F2E" stroke="#288be4" transform="translate(22.946807861328125,0) translate(0,22.946788787841797) translate(0,-22.946762084960938) translate(-22.94673728942871,0) translate(22.946807861328125,0) translate(0,22.946788787841797) translate(0,-22.946762084960938) translate(-64.25093841552734,0) translate(0,1.243476390838623) translate(96.34132385253906,0) translate(-101.15997314453125,0) translate(-1.8357415199279785,8.719772338867188) translate(-0.45893537998199463,-11.473384857177734) translate(-28.95466423034668,-46.53428268432617) translate(1098.2708740234375,0) translate(0,787.4299926757812)"><use id="svg_157" x="997.493" y="744.434" fill="#0C1F2E" stroke="#288be4" xlink:href="#svg_73"/></clipPath><g id="svg_158" stroke="null" clip-path="url(#svg_70)"><defs fill="#0C1F2E" stroke="#288be4" transform="translate(22.946807861328125,0) translate(0,22.946788787841797) translate(0,-22.946762084960938) translate(-22.94673728942871,0) translate(22.946807861328125,0) translate(0,22.946788787841797) translate(0,-22.946762084960938) translate(-64.25093841552734,0) translate(0,1.243476390838623) translate(96.34132385253906,0) translate(-101.15997314453125,0) translate(-1.8357415199279785,8.719772338867188) translate(-0.45893537998199463,-11.473384857177734) translate(-28.95466423034668,-46.53428268432617) translate(1098.2708740234375,0) translate(0,787.4299926757812)"><rect id="svg_72" width="1121" height="1030" x="-597.1" y="-802.1" fill="#0C1F2E" stroke="#288be4"/></defs><clipPath id="svg_71" fill="#0C1F2E" stroke="#288be4" transform="translate(22.946807861328125,0) translate(0,22.946788787841797) translate(0,-22.946762084960938) translate(-22.94673728942871,0) translate(22.946807861328125,0) translate(0,22.946788787841797) translate(0,-22.946762084960938) translate(-64.25093841552734,0) translate(0,1.243476390838623) translate(96.34132385253906,0) translate(-101.15997314453125,0) translate(-1.8357415199279785,8.719772338867188) translate(-0.45893537998199463,-11.473384857177734) translate(-28.95466423034668,-46.53428268432617) translate(1098.2708740234375,0) translate(0,787.4299926757812)"><use id="svg_159" fill="#0C1F2E" stroke="#288be4" xlink:href="#svg_72"/></clipPath></g></g><g id="svg_160" stroke="null"><defs fill="#0C1F2E" stroke="#288be4" transform="translate(22.946807861328125,0) translate(0,22.946788787841797) translate(0,-22.946762084960938) translate(-22.94673728942871,0) translate(22.946807861328125,0) translate(0,22.946788787841797) translate(0,-22.946762084960938) translate(-64.25093841552734,0) translate(0,1.243476390838623) translate(96.34132385253906,0) translate(-101.15997314453125,0) translate(-1.8357415199279785,8.719772338867188) translate(-0.45893537998199463,-11.473384857177734) translate(-28.95466423034668,-46.53428268432617) translate(1098.2708740234375,0) translate(0,787.4299926757812)"><path id="svg_69" fill="#0C1F2E" stroke="#288be4" d="m-125.8,-224.2c-4.1,0 -7.5,-3.4 -7.5,-7.5c0,-4.1 3.4,-7.5 7.5,-7.5c4.1,0 7.5,3.4 7.5,7.5c0,4.2 -3.4,7.5 -7.5,7.5zm0,3c5.8,0 10.5,-4.7 10.5,-10.5c0,-5.8 -4.7,-10.5 -10.5,-10.5c-5.8,0 -10.5,4.7 -10.5,10.5c0,5.8 4.7,10.5 10.5,10.5zm-30.5,-41l61,0l0,61l-61,0l0,-61z"/></defs><clipPath id="svg_64" fill="#0C1F2E" stroke="#288be4" transform="translate(22.946807861328125,0) translate(0,22.946788787841797) translate(0,-22.946762084960938) translate(-22.94673728942871,0) translate(22.946807861328125,0) translate(0,22.946788787841797) translate(0,-22.946762084960938) translate(-64.25093841552734,0) translate(0,1.243476390838623) translate(96.34132385253906,0) translate(-101.15997314453125,0) translate(-1.8357415199279785,8.719772338867188) translate(-0.45893537998199463,-11.473384857177734) translate(-28.95466423034668,-46.53428268432617) translate(1098.2708740234375,0) translate(0,787.4299926757812)"><use id="svg_161" x="997.493" y="744.434" fill="#0C1F2E" stroke="#288be4" xlink:href="#svg_69"/></clipPath><g id="svg_162" stroke="null" clip-path="url(#svg_64)"><defs fill="#0C1F2E" stroke="#288be4" transform="translate(22.946807861328125,0) translate(0,22.946788787841797) translate(0,-22.946762084960938) translate(-22.94673728942871,0) translate(22.946807861328125,0) translate(0,22.946788787841797) translate(0,-22.946762084960938) translate(-64.25093841552734,0) translate(0,1.243476390838623) translate(96.34132385253906,0) translate(-101.15997314453125,0) translate(-1.8357415199279785,8.719772338867188) translate(-0.45893537998199463,-11.473384857177734) translate(-28.95466423034668,-46.53428268432617) translate(1098.2708740234375,0) translate(0,787.4299926757812)"><circle id="svg_68" cx="-125.8" cy="-231.7" r="9" fill="#0C1F2E" stroke="#288be4"/></defs><clipPath id="svg_65" fill="#0C1F2E" stroke="#288be4" transform="translate(22.946807861328125,0) translate(0,22.946788787841797) translate(0,-22.946762084960938) translate(-22.94673728942871,0) translate(22.946807861328125,0) translate(0,22.946788787841797) translate(0,-22.946762084960938) translate(-64.25093841552734,0) translate(0,1.243476390838623) translate(96.34132385253906,0) translate(-101.15997314453125,0) translate(-1.8357415199279785,8.719772338867188) translate(-0.45893537998199463,-11.473384857177734) translate(-28.95466423034668,-46.53428268432617) translate(1098.2708740234375,0) translate(0,787.4299926757812)"><use id="svg_163" x="997.493" y="744.434" fill="#0C1F2E" stroke="#288be4" xlink:href="#svg_68"/></clipPath><g id="svg_164" stroke="null" clip-path="url(#svg_65)"><defs fill="#0C1F2E" stroke="#288be4" transform="translate(22.946807861328125,0) translate(0,22.946788787841797) translate(0,-22.946762084960938) translate(-22.94673728942871,0) translate(22.946807861328125,0) translate(0,22.946788787841797) translate(0,-22.946762084960938) translate(-64.25093841552734,0) translate(0,1.243476390838623) translate(96.34132385253906,0) translate(-101.15997314453125,0) translate(-1.8357415199279785,8.719772338867188) translate(-0.45893537998199463,-11.473384857177734) translate(-28.95466423034668,-46.53428268432617) translate(1098.2708740234375,0) translate(0,787.4299926757812)"><rect id="svg_67" width="1121" height="1030" x="-597.1" y="-802.1" fill="#0C1F2E" stroke="#288be4"/></defs><clipPath id="svg_66" fill="#0C1F2E" stroke="#288be4" transform="translate(22.946807861328125,0) translate(0,22.946788787841797) translate(0,-22.946762084960938) translate(-22.94673728942871,0) translate(22.946807861328125,0) translate(0,22.946788787841797) translate(0,-22.946762084960938) translate(-64.25093841552734,0) translate(0,1.243476390838623) translate(96.34132385253906,0) translate(-101.15997314453125,0) translate(-1.8357415199279785,8.719772338867188) translate(-0.45893537998199463,-11.473384857177734) translate(-28.95466423034668,-46.53428268432617) translate(1098.2708740234375,0) translate(0,787.4299926757812)"><use id="svg_165" fill="#0C1F2E" stroke="#288be4" xlink:href="#svg_67"/></clipPath></g></g></g><g id="svg_166" stroke="null"><defs fill="#0C1F2E" stroke="#288be4" transform="translate(22.946807861328125,0) translate(0,22.946788787841797) translate(0,-22.946762084960938) translate(-22.94673728942871,0) translate(22.946807861328125,0) translate(0,22.946788787841797) translate(0,-22.946762084960938) translate(-64.25093841552734,0) translate(0,1.243476390838623) translate(96.34132385253906,0) translate(-101.15997314453125,0) translate(-1.8357415199279785,8.719772338867188) translate(-0.45893537998199463,-11.473384857177734) translate(-28.95466423034668,-46.53428268432617) translate(1098.2708740234375,0) translate(0,787.4299926757812)"><circle id="svg_63" cx="-125.8" cy="-231.7" r="9" fill="#0C1F2E" stroke="#288be4"/></defs><clipPath id="svg_60" fill="#0C1F2E" stroke="#288be4" transform="translate(22.946807861328125,0) translate(0,22.946788787841797) translate(0,-22.946762084960938) translate(-22.94673728942871,0) translate(22.946807861328125,0) translate(0,22.946788787841797) translate(0,-22.946762084960938) translate(-64.25093841552734,0) translate(0,1.243476390838623) translate(96.34132385253906,0) translate(-101.15997314453125,0) translate(-1.8357415199279785,8.719772338867188) translate(-0.45893537998199463,-11.473384857177734) translate(-28.95466423034668,-46.53428268432617) translate(1098.2708740234375,0) translate(0,787.4299926757812)"><use id="svg_167" x="997.493" y="744.434" fill="#0C1F2E" stroke="#288be4" xlink:href="#svg_63"/></clipPath><g id="svg_168" stroke="null" clip-path="url(#svg_60)"><defs fill="#0C1F2E" stroke="#288be4" transform="translate(22.946807861328125,0) translate(0,22.946788787841797) translate(0,-22.946762084960938) translate(-22.94673728942871,0) translate(22.946807861328125,0) translate(0,22.946788787841797) translate(0,-22.946762084960938) translate(-64.25093841552734,0) translate(0,1.243476390838623) translate(96.34132385253906,0) translate(-101.15997314453125,0) translate(-1.8357415199279785,8.719772338867188) translate(-0.45893537998199463,-11.473384857177734) translate(-28.95466423034668,-46.53428268432617) translate(1098.2708740234375,0) translate(0,787.4299926757812)"><rect id="svg_62" width="1121" height="1030" x="-597.1" y="-802.1" fill="#0C1F2E" stroke="#288be4"/></defs><clipPath id="svg_61" fill="#0C1F2E" stroke="#288be4" transform="translate(22.946807861328125,0) translate(0,22.946788787841797) translate(0,-22.946762084960938) translate(-22.94673728942871,0) translate(22.946807861328125,0) translate(0,22.946788787841797) translate(0,-22.946762084960938) translate(-64.25093841552734,0) translate(0,1.243476390838623) translate(96.34132385253906,0) translate(-101.15997314453125,0) translate(-1.8357415199279785,8.719772338867188) translate(-0.45893537998199463,-11.473384857177734) translate(-28.95466423034668,-46.53428268432617) translate(1098.2708740234375,0) translate(0,787.4299926757812)"><use id="svg_169" fill="#0C1F2E" stroke="#288be4" xlink:href="#svg_62"/></clipPath></g></g><polygon id="svg_170" fill="#0C1F2E" stroke="#288be4" stroke-linecap="round" stroke-miterlimit="10" stroke-width="3" points="1201.999 856.886 1128.499 856.886 1128.499 760.986 1177.699 760.986 1201.999 782.886"/><g id="svg_171" stroke="null"><line id="svg_172" x1="1140.799" x2="1189.699" y1="797.886" y2="797.886" fill="#0C1F2E" stroke="#288be4" stroke-linecap="round" stroke-miterlimit="10" stroke-width="3"/><line id="svg_173" x1="1140.799" x2="1189.699" y1="808.986" y2="808.986" fill="#0C1F2E" stroke="#288be4" stroke-linecap="round" stroke-miterlimit="10" stroke-width="3"/></g><g id="svg_174" stroke="null"><line id="svg_175" x1="1140.799" x2="1189.699" y1="821.886" y2="821.886" fill="#0C1F2E" stroke="#288be4" stroke-linecap="round" stroke-miterlimit="10" stroke-width="3"/><line id="svg_176" x1="1140.799" x2="1189.699" y1="832.986" y2="832.986" fill="#0C1F2E" stroke="#288be4" stroke-linecap="round" stroke-miterlimit="10" stroke-width="3"/></g><polyline id="svg_177" fill="#0C1F2E" stroke="#288be4" stroke-linecap="round" stroke-miterlimit="10" stroke-width="3" points="1177.699 760.986 1177.699 782.886 1201.999 782.886"/></g></g></g></svg>